<svg width="current" height="current" viewBox="0 0 60 60" fill="none" xmlns="http://www.w3.org/2000/svg">
<path fill-rule="evenodd" clip-rule="evenodd" d="M39.602 17.5143C36.4186 15.1798 33.4806 14.449 29.3683 14.5946C25.343 14.7371 21.4831 16.2318 18.4117 18.8375C15.3402 21.4432 13.2364 25.0078 12.4396 28.956C11.6429 32.9042 12.1998 37.0058 14.0205 40.5986C15.8411 44.1915 18.8193 47.066 22.4743 48.7584C26.1293 50.4508 30.248 50.8622 34.1656 49.9262C38.0831 48.9903 41.5711 46.7616 44.0664 43.5999C46.5618 40.4382 47.9189 36.5278 47.9189 32.5V30.4167H52.0856V32.5C52.0856 37.4645 50.4128 42.2842 47.3371 46.1813C44.2615 50.0783 39.9624 52.8253 35.1338 53.9789C30.3051 55.1325 25.2286 54.6254 20.7236 52.5394C16.2186 50.4535 12.5478 46.9104 10.3038 42.482C8.05971 38.0536 7.3733 32.9982 8.35531 28.1318C9.33732 23.2654 11.9305 18.8718 15.7162 15.6602C19.5019 12.4485 24.2594 10.6062 29.2208 10.4305C34.0952 10.2579 37.9979 11.171 42.066 14.1543L43.746 15.3863L41.282 18.7463L39.602 17.5143Z" fill="#1E1E1E"/>
<path fill-rule="evenodd" clip-rule="evenodd" d="M39.6001 4.7666L44.4177 16.0578L43.1229 18.8639L31.1344 22.6103L29.8916 18.6333L39.6812 15.574L35.7677 6.40176L39.6001 4.7666Z" fill="#1E1E1E"/>
</svg>
