<svg width="current" height="current" viewBox="0 0 60 60" fill="none" xmlns="http://www.w3.org/2000/svg">
<path d="M4.7998 19.2001C4.7998 18.8687 5.06843 18.6001 5.3998 18.6001H54.5998C54.9312 18.6001 55.1998 18.8687 55.1998 19.2001V50.4001C55.1998 50.7315 54.9312 51.0001 54.5998 51.0001H5.39981C5.06843 51.0001 4.7998 50.7315 4.7998 50.4001V19.2001Z" fill="#E8E8E8"/>
<path d="M4.7998 12.0001C4.7998 11.6688 5.06843 11.4001 5.3998 11.4001H54.5998C54.9312 11.4001 55.1998 11.6688 55.1998 12.0001V18.6001H4.7998V12.0001Z" fill="#1E1E1E"/>
<path d="M10.8008 24.6002C10.8008 24.2689 11.0694 24.0002 11.4008 24.0002H16.2008C16.5322 24.0002 16.8008 24.2689 16.8008 24.6002V30.0002H10.8008V24.6002Z" fill="#BBBBBB"/>
<path d="M21.6006 24.6002C21.6006 24.2689 21.8692 24.0002 22.2006 24.0002H27.0006C27.332 24.0002 27.6006 24.2689 27.6006 24.6002V30.0002H21.6006V24.6002Z" fill="#BBBBBB"/>
<path d="M32.4004 24.6002C32.4004 24.2689 32.669 24.0002 33.0004 24.0002H37.8004C38.1318 24.0002 38.4004 24.2689 38.4004 24.6002V30.0002H32.4004V24.6002Z" fill="#BBBBBB"/>
<path d="M43.2012 24.6002C43.2012 24.2689 43.4698 24.0002 43.8012 24.0002H48.6012C48.9325 24.0002 49.2012 24.2689 49.2012 24.6002V30.0002H43.2012V24.6002Z" fill="#BBBBBB"/>
<path d="M10.8008 35.4002C10.8008 35.0688 11.0694 34.8002 11.4008 34.8002H16.2008C16.5322 34.8002 16.8008 35.0688 16.8008 35.4002V40.8002H10.8008V35.4002Z" fill="#BBBBBB"/>
<path d="M21.6006 35.4002C21.6006 35.0688 21.8692 34.8002 22.2006 34.8002H27.0006C27.332 34.8002 27.6006 35.0688 27.6006 35.4002V40.8002H21.6006V35.4002Z" fill="#BBBBBB"/>
<path d="M32.4004 35.4002C32.4004 35.0688 32.669 34.8002 33.0004 34.8002H37.8004C38.1318 34.8002 38.4004 35.0688 38.4004 35.4002V40.8002H32.4004V35.4002Z" fill="#BBBBBB"/>
<path d="M43.2012 35.4002C43.2012 35.0688 43.4698 34.8002 43.8012 34.8002H48.6012C48.9325 34.8002 49.2012 35.0688 49.2012 35.4002V40.8002H43.2012V35.4002Z" fill="#BBBBBB"/>
<path d="M13.8008 7.80007C13.8008 7.4687 14.0694 7.20007 14.4008 7.20007H16.8008C17.1322 7.20007 17.4008 7.4687 17.4008 7.80007V14.4001H13.8008V7.80007Z" fill="#BBBBBB"/>
<path d="M42.5996 7.80007C42.5996 7.4687 42.8682 7.20007 43.1996 7.20007H45.5996C45.931 7.20007 46.1996 7.4687 46.1996 7.80007V14.4001H42.5996V7.80007Z" fill="#BBBBBB"/>
</svg>
