<svg width="current" height="current" viewBox="0 0 60 60" fill="none" xmlns="http://www.w3.org/2000/svg">
<path d="M42.5003 30.8333C42.5003 37.2766 37.277 42.5 30.8337 42.5C24.3903 42.5 19.167 37.2766 19.167 30.8333C19.167 24.39 24.3903 19.1666 30.8337 19.1666C37.277 19.1666 42.5003 24.39 42.5003 30.8333Z" fill="#1E1E1E"/>
<path fill-rule="evenodd" clip-rule="evenodd" d="M32.501 8.33325V16.6666H27.501V8.33325H32.501Z" fill="black"/>
<path fill-rule="evenodd" clip-rule="evenodd" d="M53.334 33.3333L45.0007 33.3333L45.0007 28.3333L53.334 28.3333L53.334 33.3333Z" fill="black"/>
<path fill-rule="evenodd" clip-rule="evenodd" d="M32.501 44.9999V53.3332H27.501V44.9999H32.501Z" fill="black"/>
<path fill-rule="evenodd" clip-rule="evenodd" d="M16.667 33.3333L8.33366 33.3333L8.33366 28.3333L16.667 28.3333L16.667 33.3333Z" fill="black"/>
<path fill-rule="evenodd" clip-rule="evenodd" d="M48.5121 16.6914L42.6195 22.584L39.084 19.0484L44.9766 13.1559L48.5121 16.6914Z" fill="black"/>
<path fill-rule="evenodd" clip-rule="evenodd" d="M22.5844 42.6183L16.6918 48.5109L13.1563 44.9753L19.0488 39.0828L22.5844 42.6183Z" fill="black"/>
<path fill-rule="evenodd" clip-rule="evenodd" d="M44.9742 48.511L39.0817 42.6184L42.6172 39.0829L48.5098 44.9755L44.9742 48.511Z" fill="black"/>
<path fill-rule="evenodd" clip-rule="evenodd" d="M19.0494 22.5833L13.1569 16.6907L16.6924 13.1552L22.585 19.0477L19.0494 22.5833Z" fill="black"/>
</svg>
