<svg width="current" height="current" viewBox="0 0 646 200" fill="none" xmlns="http://www.w3.org/2000/svg">
<g clip-path="url(#clip0_1_3415)">
<path d="M56.0476 196.034L0 3.83301H45.8691L73.8929 115.928L83.9392 160.608H84.8645L94.6464 115.928L122.802 3.83301H168.672L112.624 196.034H56.0476Z" fill="current"/>
<path d="M282.133 196.034V3.83301H335.801L391.188 118.043L405.861 158.228H406.786L401.234 108.922V3.83301H442.08V196.034H388.015L332.893 81.8238L319.013 45.2078H317.691L322.979 102.313V196.034H282.133Z" fill="current"/>
<path d="M553.792 200C537.758 200 523.164 196.127 510.038 188.368C496.912 180.609 486.469 169.201 478.71 154.131C470.95 139.062 467.077 120.595 467.077 98.7447C467.077 76.8941 470.805 59.6568 478.247 44.9443C485.689 30.2318 495.934 19.062 508.981 11.4347C522.028 3.80749 537.004 0.000488281 553.924 0.000488281C570.845 0.000488281 585.319 3.80749 598.406 11.4347C611.492 19.062 621.843 30.2318 629.47 44.9443C637.097 59.6568 640.904 77.5947 640.904 98.7447C640.904 119.895 637.11 139.062 629.536 154.131C621.962 169.201 611.624 180.609 598.538 188.368C585.451 196.127 570.54 200 553.792 200ZM553.792 161.534C562.609 161.534 570.316 159.287 576.925 154.792C583.535 150.298 588.716 143.451 592.457 134.237C596.198 125.024 598.075 113.325 598.075 99.1413C598.075 85.7506 596.225 74.5544 592.523 65.5656C588.822 56.5768 583.64 49.8088 576.991 45.2748C570.329 40.7407 562.649 38.4671 553.924 38.4671C545.2 38.4671 538.168 40.7407 531.519 45.2748C524.87 49.8088 519.622 56.5768 515.788 65.5656C511.955 74.5544 510.038 85.7506 510.038 99.1413C510.038 109.809 511.135 119.062 513.343 126.901C515.55 134.739 518.63 141.217 522.596 146.332C526.562 151.448 531.215 155.255 536.542 157.767C541.869 160.278 547.619 161.534 553.792 161.534Z" fill="current"/>
<path d="M251.386 73.9111H247.103H227.288H220.256H214.836V143.733H224.869H244.618H257.136V73.9111H251.386Z" fill="current"/>
<path d="M247.591 193.245C250.697 191.394 253.063 188.87 254.676 185.684C256.289 182.498 257.095 178.889 257.095 174.858C257.095 170.826 256.289 167.085 254.676 163.913C253.063 160.74 250.697 158.255 247.591 156.444C244.484 154.633 240.69 153.721 236.209 153.721C231.728 153.721 227.683 154.659 224.497 156.55C221.312 158.44 218.893 160.978 217.254 164.164C215.614 167.35 214.795 170.905 214.795 174.818C214.795 178.731 215.614 182.525 217.254 185.71C218.893 188.896 221.312 191.408 224.497 193.245C227.683 195.096 231.583 196.008 236.209 196.008C240.836 196.008 244.471 195.082 247.591 193.219V193.245Z" fill="#E9FF3F"/>
<path d="M178.654 16.5266L216.513 77.6237L231.529 73.6978L228.093 3.59863L178.654 16.5266Z" fill="current"/>
</g>
<defs>
<clipPath id="clip0_1_3415">
<rect width="645.472" height="200" fill="white"/>
</clipPath>
</defs>
</svg>
