<svg width="65" height="20" viewBox="0 0 65 20" fill="none" xmlns="http://www.w3.org/2000/svg">
<g clip-path="url(#clip0_367_9695)">
<path d="M5.60476 19.6029L0 0.382812H4.58691L7.38929 11.5923L8.39392 16.0603H8.48645L9.46464 11.5923L12.2802 0.382812H16.8672L11.2624 19.6029H5.60476Z" fill="#787878"/>
<path d="M28.2129 19.6029V0.382812H33.5797L39.1184 11.8038L40.5857 15.8223H40.6782L40.123 10.8917V0.382812H44.2076V19.6029H38.8011L33.2889 8.18189L31.9009 4.52029H31.7687L32.2975 10.2308V19.6029H28.2129Z" fill="#787878"/>
<path d="M55.3785 20C53.7751 20 52.3158 19.6127 51.0031 18.8367C49.6905 18.0608 48.6462 16.92 47.8703 15.4131C47.0943 13.9061 46.707 12.0595 46.707 9.87442C46.707 7.68936 47.0798 5.96563 47.824 4.49438C48.5682 3.02313 49.5927 1.90615 50.8974 1.14342C52.2021 0.380701 53.6998 0 55.3918 0C57.0838 0 58.5312 0.380701 59.8399 1.14342C61.1485 1.90615 62.1836 3.02313 62.9463 4.49438C63.709 5.96563 64.0897 7.75942 64.0897 9.87442C64.0897 11.9894 63.7103 13.9061 62.9529 15.4131C62.1955 16.92 61.1618 18.0608 59.8531 18.8367C58.5444 19.6127 57.0534 20 55.3785 20ZM55.3785 16.1533C56.2602 16.1533 57.0309 15.9286 57.6918 15.4792C58.3528 15.0297 58.8709 14.345 59.245 13.4237C59.6191 12.5023 59.8068 11.3325 59.8068 9.91408C59.8068 8.57502 59.6218 7.45539 59.2516 6.55651C58.8815 5.65763 58.3633 4.98083 57.6984 4.52743C57.0322 4.07403 56.2642 3.84666 55.3918 3.84666C54.5193 3.84666 53.8161 4.07403 53.1512 4.52743C52.4863 4.98083 51.9615 5.65763 51.5781 6.55651C51.1948 7.45539 51.0031 8.57502 51.0031 9.91408C51.0031 10.9808 51.1128 11.9061 51.3336 12.69C51.5544 13.4739 51.8624 14.1216 52.2589 14.6332C52.6555 15.1447 53.1208 15.5254 53.6535 15.7766C54.1862 16.0278 54.7612 16.1533 55.3785 16.1533Z" fill="#787878"/>
<path d="M25.1374 7.39062H24.7091H22.7276H22.0244H21.4824V14.3728H22.4857H24.4606H25.7124V7.39062H25.1374Z" fill="#787878"/>
<path d="M24.7581 19.3235C25.0687 19.1384 25.3053 18.886 25.4666 18.5674C25.6279 18.2488 25.7085 17.8879 25.7085 17.4848C25.7085 17.0816 25.6279 16.7075 25.4666 16.3903C25.3053 16.073 25.0687 15.8245 24.7581 15.6434C24.4475 15.4623 24.0681 15.3711 23.62 15.3711C23.1718 15.3711 22.7673 15.4649 22.4488 15.654C22.1302 15.843 21.8883 16.0968 21.7244 16.4154C21.5605 16.7339 21.4785 17.0895 21.4785 17.4808C21.4785 17.8721 21.5605 18.2515 21.7244 18.57C21.8883 18.8886 22.1302 19.1398 22.4488 19.3235C22.7673 19.5086 23.1573 19.5998 23.62 19.5998C24.0826 19.5998 24.4461 19.5072 24.7581 19.3209V19.3235Z" fill="#787878"/>
<path d="M17.8643 1.65217L21.6501 7.76189L23.1518 7.36929L22.8081 0.359375L17.8643 1.65217Z" fill="#787878"/>
</g>
<defs>
<clipPath id="clip0_367_9695">
<rect width="64.5472" height="20" fill="white"/>
</clipPath>
</defs>
</svg>
