<svg width="current" height="current" viewBox="0 0 60 60" fill="none" xmlns="http://www.w3.org/2000/svg">
<path fill-rule="evenodd" clip-rule="evenodd" d="M25.8172 24.6419L16.666 8.42742L28.6193 5L29.4496 23.5996L29.4021 23.6133H33.2146H34.1817H35.487V43.4773H32.6542H28.1879H25.9189V24.6127L25.8172 24.6419ZM33.3277 54.3714C34.0316 53.9511 34.5647 53.3805 34.9303 52.6629C35.296 51.9418 35.4771 51.1285 35.4771 50.2127C35.4771 49.2969 35.296 48.4563 34.9303 47.7387C34.5647 47.0211 34.0316 46.4573 33.3277 46.0472C32.6237 45.6372 31.766 45.4321 30.7546 45.4321C29.7431 45.4321 28.8273 45.6474 28.1063 46.0746C27.3852 46.5017 26.8385 47.0758 26.4694 47.7968C26.1004 48.5178 25.9124 49.3209 25.9124 50.2059C25.9124 51.091 26.097 51.9487 26.4694 52.6697C26.8419 53.3873 27.3852 53.958 28.1063 54.3749C28.8273 54.7917 29.7089 55.0002 30.7546 55.0002C31.8002 55.0002 32.6237 54.7917 33.3277 54.3714Z" fill="#1E1E1E"/>
</svg>
