<svg width="current" height="current" viewBox="0 0 60 60" fill="none" xmlns="http://www.w3.org/2000/svg">
<path d="M43.75 28.75L32.5 16.25L10 37.5V50H21.25L43.75 28.75Z" fill="#1E1E1E"/>
<path fill-rule="evenodd" clip-rule="evenodd" d="M32.6161 13.3895L46.5428 28.8636L22.0452 52.0002H8V36.6381L32.6161 13.3895ZM12 38.3623V48.0002H20.4548L40.9572 28.6368L32.3839 19.1108L12 38.3623Z" fill="#1E1E1E"/>
<path d="M47.5 27.5L33.75 12.5L42.9167 6.66663L53.3333 18.3333L47.5 27.5Z" fill="#1E1E1E"/>
<path fill-rule="evenodd" clip-rule="evenodd" d="M47.5 27.5L53.3333 18.3333L42.9167 6.66663L33.75 12.5L47.5 27.5ZM46.925 20.9531L48.3336 18.7395L42.1966 11.8661L39.922 13.3135L46.925 20.9531Z" fill="#1E1E1E"/>
</svg>
