<svg width="60" height="60" viewBox="0 0 60 60" fill="none" xmlns="http://www.w3.org/2000/svg">
<g clip-path="url(#clip0_1_23078)">
<path fill-rule="evenodd" clip-rule="evenodd" d="M44.7603 21.6728C43.1247 17.955 41.2762 15.8716 37.7479 13.9978C34.1906 12.1086 30.1005 11.4731 26.1378 12.194C22.175 12.9148 18.5707 14.9499 15.9066 17.9708C13.2425 20.9918 11.674 24.8222 11.4543 28.8441L11.3406 30.9243L7.18017 30.697L7.29381 28.6168C7.56461 23.6596 9.49785 18.9384 12.7815 15.2149C16.0652 11.4915 20.5077 8.98308 25.3921 8.09459C30.2764 7.2061 35.3177 7.98935 39.7022 10.3179C44.1158 12.6619 46.5887 15.4818 48.5742 19.995L49.4131 21.9019L45.5992 23.5798L44.7603 21.6728Z" fill="#1E1E1E"/>
<path fill-rule="evenodd" clip-rule="evenodd" d="M15.2424 36.6621C16.8827 40.3908 18.9047 42.699 22.4233 44.5677C25.9806 46.4569 30.0707 47.0924 34.0335 46.3715C37.9963 45.6507 41.6006 43.6156 44.2647 40.5947C46.9288 37.5738 48.4973 33.7433 48.717 29.7215L48.8306 27.6412L52.9911 27.8685L52.8774 29.9488C52.6066 34.9059 50.6734 39.6272 47.3897 43.3506C44.1061 47.0741 39.6636 49.5825 34.7792 50.4709C29.8948 51.3594 24.8536 50.5762 20.469 48.2476C16.0458 45.8985 13.4092 42.8423 11.4284 38.3399L10.5895 36.433L14.4034 34.7551L15.2424 36.6621Z" fill="#1E1E1E"/>
<path fill-rule="evenodd" clip-rule="evenodd" d="M51.526 10.6033L50.0525 22.7905L47.5282 24.5733L35.2726 21.8235L36.1848 17.7579L46.1925 20.0033L47.3895 10.1032L51.526 10.6033Z" fill="#1E1E1E"/>
<path fill-rule="evenodd" clip-rule="evenodd" d="M8.64588 47.9621L10.1193 35.7749L12.6437 33.9921L24.8993 36.7419L23.9871 40.8075L13.9794 38.5621L12.7824 48.4623L8.64588 47.9621Z" fill="#1E1E1E"/>
</g>
<path d="M52 52L8 8" stroke="#FF4A4A" stroke-width="4"/>
<defs>
<clipPath id="clip0_1_23078">
<rect width="60" height="60" fill="white"/>
</clipPath>
</defs>
</svg>
