<svg width="current" height="current" viewBox="0 0 60 60" fill="current" xmlns="http://www.w3.org/2000/svg">
<path d="M37.8663 46.6669C37.8663 51.2694 34.1352 55.0004 29.5327 55.0004C24.9303 55.0004 21.1992 51.2694 21.1992 46.6669C21.1992 42.0644 24.9303 38.3334 29.5327 38.3334C34.1352 38.3334 37.8663 42.0644 37.8663 46.6669Z" fill="#BBBBBB"/>
<path d="M6.71725 39.5958C6.90274 38.8539 7.56937 38.3334 8.33415 38.3334H50.7316C51.4963 38.3334 52.163 38.8539 52.3485 39.5958L54.0151 46.2625C54.2781 47.3144 53.4825 48.3334 52.3982 48.3334H6.66749C5.5832 48.3334 4.78761 47.3144 5.05058 46.2625L6.71725 39.5958Z" fill="current"/>
<path d="M14.3331 11.4374C14.4476 10.6134 15.1521 10 15.9839 10H43.0816C43.9135 10 44.618 10.6134 44.7324 11.4374L48.4361 38.1041C48.5753 39.1061 47.7969 40 46.7853 40H12.2802C11.2686 40 10.4903 39.1061 10.6294 38.1041L14.3331 11.4374Z" fill="current"/>
</svg>
