<svg width="current" height="current" viewBox="0 0 60 60" fill="current" xmlns="http://www.w3.org/2000/svg">
<path d="M7.5 48.3333V14.1667C7.5 13.2462 8.24619 12.5 9.16667 12.5H19.108C19.6653 12.5 20.1857 12.7785 20.4948 13.2422L24.5052 19.2578C24.8143 19.7215 25.3347 20 25.892 20H45.8333C46.7538 20 47.5 20.7462 47.5 21.6667V48.3333C47.5 49.2538 46.7538 50 45.8333 50H9.16667C8.24619 50 7.5 49.2538 7.5 48.3333Z" fill="#787878"/>
<path d="M13.8436 25.4177L8.03713 47.9177C7.76489 48.9726 8.56143 50.0008 9.65093 50.0008H46.2479C46.9894 50.0008 47.6418 49.5109 47.8485 48.7988L54.3808 26.2988C54.6903 25.2326 53.8904 24.1675 52.7802 24.1675H15.4574C14.6973 24.1675 14.0335 24.6817 13.8436 25.4177Z" fill="#1E1E1E"/>
</svg>
