<svg width="current" height="current" viewBox="0 0 60 60" fill="current" xmlns="http://www.w3.org/2000/svg">
<path fill-rule="evenodd" clip-rule="evenodd" d="M23.7503 9.58341C15.9263 9.58341 9.58366 15.926 9.58366 23.7501C9.58366 31.5741 15.9263 37.9167 23.7503 37.9167C31.5744 37.9167 37.917 31.5741 37.917 23.7501C37.917 15.926 31.5744 9.58341 23.7503 9.58341ZM5.41699 23.7501C5.41699 13.6249 13.6251 5.41675 23.7503 5.41675C33.8755 5.41675 42.0837 13.6249 42.0837 23.7501C42.0837 33.8753 33.8755 42.0834 23.7503 42.0834C13.6251 42.0834 5.41699 33.8753 5.41699 23.7501Z" fill="current"/>
<path fill-rule="evenodd" clip-rule="evenodd" d="M37.5 34.5537L52.9463 50L50 52.9463L34.5537 37.5L37.5 34.5537Z" fill="current"/>
</svg>
