<svg width="current" height="current" viewBox="0 0 60 60" fill="none" xmlns="http://www.w3.org/2000/svg">
<g clip-path="url(#clip0_1_3135)">
<path fill-rule="evenodd" clip-rule="evenodd" d="M44.7573 21.6724C43.1217 17.9545 41.2732 15.8711 37.745 13.9973C34.1877 12.1081 30.0976 11.4726 26.1348 12.1935C22.172 12.9143 18.5677 14.9495 15.9036 17.9704C13.2395 20.9913 11.6711 24.8217 11.4513 28.8436L11.3377 30.9238L7.17724 30.6965L7.29088 28.6163C7.56168 23.6592 9.49492 18.9379 12.7786 15.2144C16.0622 11.491 20.5048 8.98259 25.3891 8.0941C30.2735 7.20561 35.3148 7.98886 39.6993 10.3174C44.1129 12.6614 46.5858 15.4813 48.5713 19.9945L49.4102 21.9015L45.5963 23.5793L44.7573 21.6724Z" fill="#1E1E1E"/>
<path fill-rule="evenodd" clip-rule="evenodd" d="M15.2394 36.6613C16.8798 40.39 18.9018 42.6983 22.4204 44.567C25.9777 46.4562 30.0678 47.0917 34.0306 46.3708C37.9934 45.65 41.5977 43.6149 44.2618 40.594C46.9259 37.573 48.4943 33.7426 48.7141 29.7207L48.8277 27.6405L52.9882 27.8678L52.8745 29.948C52.6037 34.9052 50.6705 39.6264 47.3868 43.3499C44.1032 47.0733 39.6606 49.5817 34.7763 50.4702C29.8919 51.3587 24.8506 50.5755 20.4661 48.2469C16.0429 45.8978 13.4062 42.8415 11.4255 38.3392L10.5866 36.4322L14.4005 34.7544L15.2394 36.6613Z" fill="#1E1E1E"/>
<path fill-rule="evenodd" clip-rule="evenodd" d="M51.5231 10.6023L50.0496 22.7896L47.5252 24.5723L35.2697 21.8225L36.1819 17.757L46.1896 20.0024L47.3865 10.1022L51.5231 10.6023Z" fill="#1E1E1E"/>
<path fill-rule="evenodd" clip-rule="evenodd" d="M8.64295 47.9617L10.1164 35.7744L12.6408 33.9917L24.8963 36.7414L23.9841 40.807L13.9764 38.5616L12.7795 48.4618L8.64295 47.9617Z" fill="#1E1E1E"/>
</g>
</svg>
