<svg width="current" height="current" viewBox="0 0 60 60" fill="none" xmlns="http://www.w3.org/2000/svg">
<path d="M44.5662 50.4725C44.5286 50.7727 44.2734 50.998 43.9708 50.998L14.7258 50.998C14.4251 50.998 14.1708 50.7754 14.1311 50.4773L9.49105 15.6773C9.44309 15.3177 9.72291 14.998 10.0858 14.998L48.3208 14.9981C48.6817 14.9981 48.9609 15.3144 48.9162 15.6725L44.5662 50.4725Z" fill="#E8E8E8"/>
<path d="M52 15.5992C52 15.9306 51.7314 16.1992 51.4 16.1992L7.6 16.1992C7.26863 16.1992 7 15.9306 7 15.5992L7 9.59922C7 9.26784 7.26863 8.99922 7.6 8.99922L51.4 8.99922C51.7314 8.99922 52 9.26785 52 9.59922L52 15.5992Z" fill="#1E1E1E"/>
<path fill-rule="evenodd" clip-rule="evenodd" d="M28.6 41.9984C28.2686 41.9984 28 41.7298 28 41.3984L28 20.9984C28 20.6671 28.2686 20.3984 28.6 20.3984L29.8 20.3984C30.1314 20.3984 30.4 20.6671 30.4 20.9984L30.4 41.3984C30.4 41.7298 30.1314 41.9984 29.8 41.9984L28.6 41.9984Z" fill="#BBBBBB"/>
<path fill-rule="evenodd" clip-rule="evenodd" d="M19.0771 41.9479C18.7469 41.9763 18.445 41.7328 18.4027 41.4042L15.7963 21.1459C15.754 20.8172 15.9874 20.5278 16.3175 20.4995L17.5088 20.3972C17.8389 20.3688 18.1409 20.6123 18.1831 20.9409L20.7896 41.1992C20.8319 41.5279 20.5985 41.8173 20.2683 41.8456L19.0771 41.9479Z" fill="#BBBBBB"/>
<path fill-rule="evenodd" clip-rule="evenodd" d="M39.3956 41.9479C39.7257 41.9763 40.0277 41.7328 40.0699 41.4042L42.6764 21.1459C42.7187 20.8172 42.4853 20.5278 42.1551 20.4995L40.9639 20.3972C40.6337 20.3688 40.3318 20.6123 40.2895 20.9409L37.6831 41.1992C37.6408 41.5279 37.8742 41.8173 38.2043 41.8456L39.3956 41.9479Z" fill="#BBBBBB"/>
</svg>
